{"title":"Wonders of the solar system 2-5 Order out of chaos","uid":6643416,"size":790432966,"categoryP":"video","categoryS":"tv_shows","magnet":"?xt=urn:btih:c496d39c52a187fd3622ade4256506cdc25e377b&amp;dn=Wonders+of+the+solar+system+2-5+Order+out+of+chaos&amp;tr=udp%3A%2F%2Ftracker.openbittorrent.com%3A80&amp;tr=udp%3A%2F%2Fopen.demonii.com%3A1337&amp;tr=udp%3A%2F%2Ftracker.coppersurfer.tk%3A6969&amp;tr=udp%3A%2F%2Fexodus.desync.com%3A6969","seeders":2,"leechers":0,"uploader":"stu181","files":1,"time":1314840568,"description":"Wonders of the solar system 2-5 Order out of chaos\n\nBrought to you by the Pro Torrent Team  &lt;a href=&quot; http://www.protorrent.co.uk&quot; rel=&quot;nofollow&quot; target=&quot;_NEW&quot;&gt; http://www.protorrent.co.uk&lt;/a&gt;\n\nProfessor Brian Cox describes how nature has carved out the solar system. He looks at the rings of Saturn, explaining how they formed from a chaotic cloud of gas.\n\nFormat                           : AVI\nFormat/Info                      : Audio Video Interleave\nFormat profile                   : OpenDML\nFormat settings                  : rec\nFile size                        : 754 MiB\nDuration                         : 58mn 36s\nOverall bit rate                 : 1 798 Kbps\nWriting application              : AVI-Mux GUI 1.17.8.3, Feb 16 201019:42:50\n\nVideo\nID                               : 0\nFormat                           : MPEG-4 Visual\nFormat profile                   : Advanced Simple@L5\nFormat settings, BVOP            : 1\nFormat settings, QPel            : No\nFormat settings, GMC             : No warppoints\nFormat settings, Matrix          : Default (H.263)\nMuxing mode                      : Packed bitstream\nCodec ID                         : XVID\nCodec ID/Hint                    : XviD\nDuration                         : 58mn 36s\nBit rate                         : 1 601 Kbps\nWidth                            : 704 pixels\nHeight                           : 400 pixels\nDisplay aspect ratio             : 16:9\nFrame rate                       : 25.000 fps\nColor space                      : YUV\nChroma subsampling               : 4:2:0\nBit depth                        : 8 bits\nScan type                        : Progressive\nCompression mode                 : Lossy\nBits/(Pixel*Frame)               : 0.227\nStream size                      : 671 MiB (89%)\nWriting library                  : XviD 1.2.1 (UTC 2008-12-04)\n\nAudio\nID                               : 1\nFormat                           : AC-3\nFormat/Info                      : Audio Coding 3\nMode extension                   : CM (complete main)\nCodec ID                         : 2000\nDuration                         : 58mn 35s\nBit rate mode                    : Constant\nBit rate                         : 192 Kbps\nChannel(s)                       : 2 channels\nChannel positions                : Front: L R\nSampling rate                    : 48.0 KHz\nBit depth                        : 16 bits\nCompression mode                 : Lossy\nStream size                      : 80.5 MiB (11%)\nAlignment                        : Aligned on interleaves\nInterleave, duration             : 64 ms (1.60 video frames)\nInterleave, preload duration     : 192 ms\nTitle                            : Wonders of the Solar System E02 NO 157d 3_2ch 48KHz 192Kbps DELAY 0ms\n\n","torrent":{"xt":"urn:btih:c496d39c52a187fd3622ade4256506cdc25e377b","amp;dn":"Wonders+of+the+solar+system+2-5+Order+out+of+chaos","amp;tr":["udp%3A%2F%2Ftracker.openbittorrent.com%3A80","udp%3A%2F%2Fopen.demonii.com%3A1337","udp%3A%2F%2Ftracker.coppersurfer.tk%3A6969","udp%3A%2F%2Fexodus.desync.com%3A6969"],"infoHash":"c496d39c52a187fd3622ade4256506cdc25e377b","infoHashBuffer":{"type":"Buffer","data":[196,150,211,156,82,161,135,253,54,34,173,228,37,101,6,205,194,94,55,123]},"announce":[],"urlList":[]}}